<svg xmlns="http://www.w3.org/2000/svg" width="59.59" height="48.83" viewBox="0 0 59.59 48.83">
  <g id="caddie" transform="translate(-9.25 -158.56)">
    <path id="Tracé_1284" data-name="Tracé 1284" d="M64.046,190.727c-.38,2.032-.751,4.02-1.126,6.032H24.434q-3.689-16.084-7.388-32.209H10.623L9.25,158.568h.42c3.9,0,7.8.005,11.7-.008.33,0,.438.1.51.413.391,1.728.82,3.447,1.212,5.175.075.33.252.349.524.349q14.527-.02,29.053-.03,7.833,0,15.666,0h.505c-1.357,7.274-2.7,14.5-4.06,21.771H28.16c.123.535.234,1.017.345,1.5.209.9.425,1.808.621,2.716.044.205.117.3.332.277a2.6,2.6,0,0,1,.313,0H64.046Z" transform="translate(0 0)" fill="#fff"/>
    <path id="Tracé_1285" data-name="Tracé 1285" d="M206.153,532.814a4.717,4.717,0,0,1,4.81,4.763,4.812,4.812,0,1,1-4.81-4.763Z" transform="translate(-171.952 -335.011)" fill="#fff"/>
    <path id="Tracé_1286" data-name="Tracé 1286" d="M396.6,537.43a4.8,4.8,0,1,1,4.747,4.844A4.819,4.819,0,0,1,396.6,537.43Z" transform="translate(-346.741 -334.885)" fill="#fff"/>
  </g>
</svg>
