<svg xmlns="http://www.w3.org/2000/svg" width="71.701" height="71.701" viewBox="0 0 71.701 71.701">
  <g id="discord" transform="translate(-0.044 -0.044)">
    <g id="Groupe_36" data-name="Groupe 36" transform="translate(0.395 0.395)">
      <path id="Tracé_1271" data-name="Tracé 1271" d="M384.311,479.65a3.637,3.637,0,1,0,3.221,3.613,3.426,3.426,0,0,0-3.221-3.613" transform="translate(-354.756 -446.415)" fill="#fff"/>
      <path id="Tracé_1272" data-name="Tracé 1272" d="M554.441,479.65a3.637,3.637,0,1,0,3.221,3.613,3.427,3.427,0,0,0-3.221-3.613" transform="translate(-512.974 -446.415)" fill="#fff"/>
      <path id="Tracé_1273" data-name="Tracé 1273" d="M35.85,0A35.85,35.85,0,1,0,71.7,35.85,35.85,35.85,0,0,0,35.85,0M53.619,44.886a.115.115,0,0,1-.047.083,29.629,29.629,0,0,1-8.963,4.525.113.113,0,0,1-.126-.043,23.853,23.853,0,0,1-1.83-2.977l-.006-.013a.114.114,0,0,1,.067-.147,18.374,18.374,0,0,0,2.8-1.33.115.115,0,0,0,.01-.19c-.193-.141-.381-.289-.56-.437a.111.111,0,0,0-.118-.014,21.2,21.2,0,0,1-18.017,0,.111.111,0,0,0-.116.015c-.179.148-.368.3-.555.436a.115.115,0,0,0,.011.19,19.581,19.581,0,0,0,2.8,1.33l.012.005a.113.113,0,0,1,.05.152A21.247,21.247,0,0,1,27.2,49.451a.116.116,0,0,1-.126.041,29.729,29.729,0,0,1-8.952-4.525.123.123,0,0,1-.047-.084,30.259,30.259,0,0,1,5.3-20.4.1.1,0,0,1,.048-.041,29.477,29.477,0,0,1,7.295-2.263.115.115,0,0,1,.118.055,18.894,18.894,0,0,1,.923,1.867,27.291,27.291,0,0,1,8.2,0,20.58,20.58,0,0,1,.91-1.867.111.111,0,0,1,.118-.055,29.563,29.563,0,0,1,7.3,2.263.091.091,0,0,1,.044.044,30.056,30.056,0,0,1,5.3,20.405" transform="translate(-0.35 -0.35)" fill="#fff"/>
    </g>
  </g>
</svg>
