<svg id="prizes" xmlns="http://www.w3.org/2000/svg" xmlns:xlink="http://www.w3.org/1999/xlink" width="71.647" height="71.701" viewBox="0 0 71.647 71.701">
  <defs>
    <clipPath id="clip-path">
      <rect id="Rectangle_784" data-name="Rectangle 784" width="71.647" height="71.701" fill="#fff"/>
    </clipPath>
  </defs>
  <g id="Groupe_37" data-name="Groupe 37" clip-path="url(#clip-path)">
    <path id="Tracé_1274" data-name="Tracé 1274" d="M.868,122.3l-.839-2.931L0,119.374q.087,1.561.306,3.083Z" transform="translate(0 -81.493)" fill="#fff"/>
    <path id="Tracé_1275" data-name="Tracé 1275" d="M168.5,37.286a1.182,1.182,0,0,0,.828-.692,1.2,1.2,0,0,0,.048-1.006,3.894,3.894,0,0,0-.989-1.161l-1.25,2.754a2.492,2.492,0,0,0,1.363.1" transform="translate(-114.11 -23.505)" fill="#fff"/>
    <path id="Tracé_1276" data-name="Tracé 1276" d="M193.281,74.455a.944.944,0,0,0-.308.744.931.931,0,0,0,.29.692,2.762,2.762,0,0,0,1.013.457l-.091-2.267a1.484,1.484,0,0,0-.9.374" transform="translate(-131.746 -50.576)" fill="#fff"/>
    <path id="Tracé_1277" data-name="Tracé 1277" d="M169.674,17.47a1.655,1.655,0,0,0-.759.036,1.206,1.206,0,0,0-.781.674,1.19,1.19,0,0,0-.066.958,3.528,3.528,0,0,0,.9,1.1l1.134-2.5c-.141-.092-.281-.184-.424-.274" transform="translate(-114.694 -11.909)" fill="#fff"/>
    <path id="Tracé_1278" data-name="Tracé 1278" d="M64.922,187.882a1.929,1.929,0,0,0-1.4-.819,6.256,6.256,0,0,0-2.393.544l2.995,3.838a4.009,4.009,0,0,0,1.166-1.866,1.9,1.9,0,0,0-.368-1.7" transform="translate(-41.735 -127.708)" fill="#fff"/>
    <path id="Tracé_1279" data-name="Tracé 1279" d="M59.276,7.987l-.139.082c-.082-.143-.172-.273-.262-.4q-.8-.631-1.639-1.214L56.048,9.065l.043.02A6.537,6.537,0,0,1,58.177,11.4a2.807,2.807,0,0,1-.1,2.378,3.058,3.058,0,0,1-1.927,1.748,4.363,4.363,0,0,1-2.935-.212l-.5,1.093-.984-.447.506-1.115a7.307,7.307,0,0,1-3.005-3.368l1.72-.827a5.765,5.765,0,0,0,2.039,2.534l1.349-2.973A6.417,6.417,0,0,1,52.284,7.95a2.769,2.769,0,0,1,.133-2.325,3.139,3.139,0,0,1,1.189-1.4,35.895,35.895,0,0,0-34.124.188,6.556,6.556,0,0,1,2.87.562l-.469,2.514a6.489,6.489,0,0,0-2.329-.423,5,5,0,0,0-2.091.637,4.078,4.078,0,0,0-2.211,4.12l4.7-2.483.892,1.687-5.117,2.706.372.7a5.988,5.988,0,0,0,.547.9L21.7,12.654l.892,1.687-4.527,2.394a3.879,3.879,0,0,0,4.291.357,4.369,4.369,0,0,0,1.591-1.345,7.463,7.463,0,0,0,.946-2.156l2.285.987a6.608,6.608,0,0,1-3.619,4.791,6.762,6.762,0,0,1-4.237.765,7.268,7.268,0,0,1-3.957-1.973L13.2,19.307l-.892-1.687,1.771-.937q-.383-.588-.562-.926a5.361,5.361,0,0,1-.329-.69l-1.743.922L10.556,14.3l2.052-1.085A7.5,7.5,0,0,1,12.962,9,35.8,35.8,0,0,0,1.353,29.945,4.956,4.956,0,0,1,2.4,29.516a3.6,3.6,0,0,1,3.7.888L5.07,31.849a2.048,2.048,0,0,0-2.018-.6,1.9,1.9,0,0,0-1.183.838,1.934,1.934,0,0,0-.082,1.546l.6,2.1,2.7-.773.456,1.592-2.7.773.839,2.93L8.507,38.88,9,40.588,1.527,42.727A35.875,35.875,0,0,0,16.957,65.77,9.162,9.162,0,0,0,21.9,64.746L18.663,60.6A10.334,10.334,0,0,1,13.9,61.846a4.459,4.459,0,0,1-3.218-1.925,4.931,4.931,0,0,1-1.062-4,6.65,6.65,0,0,1,2.34-3.91l-.832-1.066,1.371-1.07.856,1.1a11.037,11.037,0,0,1,5.683-1.886l.144,3.073a8.422,8.422,0,0,0-4.021,1.128L18.3,57.31l.061-.047a10.531,10.531,0,0,1,4.861-1.245,4.52,4.52,0,0,1,3.314,1.923,4.923,4.923,0,0,1,1.056,4.053A7.022,7.022,0,0,1,25.1,66.022l1.189,1.523-1.371,1.07L23.7,67.062a11.192,11.192,0,0,1-2.415,1.161A35.7,35.7,0,0,0,36.314,71.7l-.245-.052.306-1.452,1.138.24.525-2.491-1.2-.252.285-1.354,1.2.252.359-1.706a3.276,3.276,0,0,1,1.309-2.224,3.106,3.106,0,0,1,2.382-.318,3.009,3.009,0,0,1,2.384,2.1l-1.328.663a1.711,1.711,0,0,0-1.257-1.228,1.589,1.589,0,0,0-1.2.156,1.616,1.616,0,0,0-.664,1.11l-.376,1.785,2.295.484-.285,1.354-2.295-.484-.525,2.491,2.692.567A35.853,35.853,0,0,0,59.276,7.987m-41.834,24.2a3.6,3.6,0,0,1-2.26.408,3.877,3.877,0,0,1-2.111-1.052l-1.155.61-.476-.9.945-.5q-.2-.314-.3-.494a2.8,2.8,0,0,1-.175-.368l-.93.492-.476-.9,1.095-.579a3.985,3.985,0,0,1,.274-2.457A3.623,3.623,0,0,1,13.523,24.7a3.614,3.614,0,0,1,3.273-.2l-.25,1.341a3.457,3.457,0,0,0-1.242-.226,2.668,2.668,0,0,0-1.115.34,2.175,2.175,0,0,0-1.18,2.2l2.5-1.324.476.9L13.261,29.18l.2.375a3.184,3.184,0,0,0,.292.479l2.7-1.427.476.9-2.415,1.277a2.069,2.069,0,0,0,2.289.191,2.332,2.332,0,0,0,.849-.717,3.975,3.975,0,0,0,.5-1.15l1.219.526a3.525,3.525,0,0,1-1.93,2.555M24.1,37.521a7.438,7.438,0,0,1-1.94-.426,2.785,2.785,0,0,1-1.092-.729,1.466,1.466,0,0,1,.061-2.024,8.362,8.362,0,0,1,1.865-1.571c1.167-.738,2.352-1.446,3.538-2.151q3.038-1.808,6.086-3.6c.053-.032.107-.06.178-.1l.032.165c.216,1.113.43,2.225.652,3.337a.194.194,0,0,1-.11.246q-2.923,1.728-5.839,3.465a8.166,8.166,0,0,0-.667.482.659.659,0,0,0-.106.114c-.285.356-.2.644.238.775a2.981,2.981,0,0,0,1.19.057,7.913,7.913,0,0,0,3.41-1.243c.727-.461,1.475-.891,2.214-1.334.043-.026.089-.049.142-.079l.637,3.277c-.386.14-.768.287-1.155.417a20.709,20.709,0,0,1-2.82.734,21.418,21.418,0,0,1-6.517.184M38.639,47.885a3.459,3.459,0,0,0-.477-1.169,2.669,2.669,0,0,0-.886-.758,2.176,2.176,0,0,0-2.487.185l2.462,1.4-.5.885L34.065,46.9l-.21.369a3.211,3.211,0,0,0-.247.5l2.654,1.51-.5.885-2.374-1.351a2.069,2.069,0,0,0,1.069,2.033,2.33,2.33,0,0,0,1.061.331,3.99,3.99,0,0,0,1.241-.192l.211,1.31a3.524,3.524,0,0,1-3.192-.255,3.607,3.607,0,0,1-1.558-1.687,3.879,3.879,0,0,1-.246-2.346l-1.135-.646.5-.885.929.529q.155-.341.255-.518a2.886,2.886,0,0,1,.216-.346l-.914-.52.5-.884,1.076.612a3.984,3.984,0,0,1,2.22-1.089A3.864,3.864,0,0,1,39.9,47.376ZM36.181,37.724,30.746,9.778c.276,0,.54,0,.8.007a79.406,79.406,0,0,1,7.977.64,18.861,18.861,0,0,1,3.966.861,7.413,7.413,0,0,1,3.482,2.346,8.6,8.6,0,0,1,1.407,2.743A15.425,15.425,0,0,1,48.989,19a7.125,7.125,0,0,1-.2,3.253,3.744,3.744,0,0,1-2.382,2.5,5.206,5.206,0,0,1-2.447.211c-.329-.043-.653-.122-.98-.175-.123-.02-.165-.078-.188-.2q-.752-3.9-1.514-7.794c-.128-.658-.26-1.316-.413-1.969a2.439,2.439,0,0,0-.581-1.14,1.474,1.474,0,0,0-1.181-.461.773.773,0,0,0-.7.511,1.946,1.946,0,0,0-.118,1.025c.018.165.051.329.082.492Q40.6,26.762,42.838,38.27c.015.069.028.139.046.23l-6.7-.775m6.656-5.9-.029-.149q-.339-1.745-.681-3.49a.17.17,0,0,1,.1-.217,23.205,23.205,0,0,1,4.445-1.944,20.234,20.234,0,0,1,8.465-.876,10.546,10.546,0,0,1,2.712.538,2.971,2.971,0,0,1,1.047.632,1.37,1.37,0,0,1,.3,1.644,3.776,3.776,0,0,1-.87,1.111,12.314,12.314,0,0,1-2.286,1.612q-5.516,3.277-11.028,6.561l-.992.588c-.016-.061-.031-.107-.04-.155-.217-1.112-.431-2.225-.652-3.337a.184.184,0,0,1,.1-.234q4.613-2.724,9.22-5.457c.253-.15.478-.345.716-.52a.32.32,0,0,0,.043-.045c.341-.385.248-.7-.251-.833a3.537,3.537,0,0,0-1.455,0,8.255,8.255,0,0,0-2.968,1.123c-1.912,1.143-3.839,2.259-5.759,3.386-.039.023-.081.042-.134.069M61.721,42.45c-.241-.041-.484-.085-.729-.123a7.425,7.425,0,0,0-2.146.039,18.643,18.643,0,0,0-2.647.615c-.131.037-.264.065-.4.1a.248.248,0,0,1-.232-.045c-.458-.327-.909-.666-1.381-.972a12.587,12.587,0,0,0-2.229-1.182,5.2,5.2,0,0,0-1.188-.288c-.14-.02-.279-.047-.419-.07v-.051a11.09,11.09,0,0,1,4.047-.719,11.426,11.426,0,0,1,7.318,2.693M44.587,54.7a4.135,4.135,0,0,0-.309,1.2,3.1,3.1,0,0,0,.016.372.281.281,0,0,1-.008.125c-.033-.058-.068-.115-.1-.175a11.156,11.156,0,0,1-1.154-4.51,16.254,16.254,0,0,1,.047-2.139,9.419,9.419,0,0,1,.48-1.908,11.273,11.273,0,0,1,3.955-5.6c.074-.053.15-.1.225-.154a.632.632,0,0,1,.675-.04,5.617,5.617,0,0,1,1.588,1.152,24.823,24.823,0,0,1,1.894,2.23l.232.294c-.3.261-.584.51-.866.768a37.6,37.6,0,0,0-5.443,6.121,10.34,10.34,0,0,0-1.235,2.26m16.129,5.533a1.044,1.044,0,0,1-.459.624,7.173,7.173,0,0,1-1.5.764,12.008,12.008,0,0,1-3.047.811,11.7,11.7,0,0,1-2.613-.014c-.2-.022-.391-.047-.539-.065a11.2,11.2,0,0,1-6.149-3.093,10,10,0,0,1-.7-.756,1.368,1.368,0,0,1-.206-1.42,5.711,5.711,0,0,1,1.031-1.72,19.165,19.165,0,0,1,2.68-2.636A35.688,35.688,0,0,1,54,49.36c.188-.11.39-.2.585-.3a.222.222,0,0,1,.3.054c.264.306.542.6.79.92a44.5,44.5,0,0,1,3.247,4.676,15.938,15.938,0,0,1,1.633,3.607,4.619,4.619,0,0,1,.224,1.369,2.646,2.646,0,0,1-.068.549m4.873-7.572a12.053,12.053,0,0,1-.5,2.255,11.821,11.821,0,0,1-1.1,2.257,12.229,12.229,0,0,1-1.685,2.112,1.2,1.2,0,0,1-.1.09.186.186,0,0,1-.046.016c.021-.061.034-.11.054-.157a3.352,3.352,0,0,0,.213-1.322,10.756,10.756,0,0,0-.578-3.242,40,40,0,0,0-3.457-7.96c-.02-.036-.039-.072-.062-.116l.766-.5a15.353,15.353,0,0,1,2.469-1.364,4.834,4.834,0,0,1,1.668-.392.332.332,0,0,1,.3.132c.2.263.4.52.576.8a11.446,11.446,0,0,1,1.6,5.131,10.073,10.073,0,0,1-.121,2.258M64.521,31.339l.037.937-.843.034-.038-.955a5.706,5.706,0,0,1-3.279-1.3l.91-1.181a4.5,4.5,0,0,0,2.312,1.052l-.1-2.547a5.014,5.014,0,0,1-2.229-.859,2.164,2.164,0,0,1-.723-1.669,2.392,2.392,0,0,1,.713-1.877,3.224,3.224,0,0,1,2.029-.879l-.026-.656.843-.034.027.674a5.353,5.353,0,0,1,2.774.865L66.112,24.2a4.087,4.087,0,0,0-1.9-.693l.1,2.473.037,0a5.108,5.108,0,0,1,2.268.885,2.193,2.193,0,0,1,.762,1.7,2.388,2.388,0,0,1-.731,1.9,3.408,3.408,0,0,1-2.122.882" transform="translate(-0.924)" fill="#fff"/>
    <path id="Tracé_1280" data-name="Tracé 1280" d="M36.959,172.849a1.943,1.943,0,0,0,.379,1.616,1.917,1.917,0,0,0,1.317.81,5.685,5.685,0,0,0,2.244-.453l-2.876-3.686a3.061,3.061,0,0,0-1.064,1.713" transform="translate(-25.206 -116.838)" fill="#fff"/>
    <path id="Tracé_1281" data-name="Tracé 1281" d="M199.971,86.9l.094,2.36a1.948,1.948,0,0,0,.988-.405.924.924,0,0,0,.335-.773.937.937,0,0,0-.32-.719,3.043,3.043,0,0,0-1.1-.463" transform="translate(-136.524 -59.332)" fill="#fff"/>
  </g>
</svg>
