<svg id="prices" xmlns="http://www.w3.org/2000/svg" xmlns:xlink="http://www.w3.org/1999/xlink" width="50.23" height="50.23" viewBox="0 0 50.23 50.23">
  <defs>
    <clipPath id="clip-path">
      <rect id="Rectangle_787" data-name="Rectangle 787" width="50.23" height="50.23" fill="none"/>
    </clipPath>
  </defs>
  <g id="Groupe_40" data-name="Groupe 40" clip-path="url(#clip-path)">
    <path id="Tracé_1287" data-name="Tracé 1287" d="M25.116,50.23A25.115,25.115,0,1,1,50.23,25.148,25.123,25.123,0,0,1,25.116,50.23m-.964-4.511H26.5v-.228c0-1.138.006-2.276,0-3.415,0-.254.083-.319.335-.343A14.89,14.89,0,0,0,28.7,41.46a8.952,8.952,0,0,0,5.415-3.7,9.828,9.828,0,0,0,1.689-5.58,10.374,10.374,0,0,0-.132-1.558,8.184,8.184,0,0,0-5.422-6.733c-1.077-.408-2.208-.675-3.324-.975-.33-.089-.44-.212-.438-.568.016-3.426.01-6.853.01-10.279v-.444c2.833.567,4.034,2.518,4.408,5.134l4.074-.621a1.309,1.309,0,0,0,0-.333c-.248-.861-.454-1.739-.773-2.575a7.164,7.164,0,0,0-1.718-2.5,7.591,7.591,0,0,0-2.341-1.6,10.47,10.47,0,0,0-3.285-.843c-.288-.025-.377-.1-.367-.381.019-.513.006-1.026.006-1.534H24.148c0,.554,0,1.083,0,1.61,0,.165-.019.278-.232.3-.447.05-.893.127-1.337.2a8.768,8.768,0,0,0-3.819,1.524,8.186,8.186,0,0,0-2.507,2.962,7.854,7.854,0,0,0-.852,3.1,10.8,10.8,0,0,0,.184,3.234,7.855,7.855,0,0,0,2.079,3.776,8.979,8.979,0,0,0,2.293,1.547A15.991,15.991,0,0,0,24.124,26.1V38.51c-.568-.181-1.106-.307-1.606-.522a6.4,6.4,0,0,1-3.263-3.928c-.235-.828-.424-1.672-.641-2.539l-3.93.736c.029.354.032.7.088,1.03a11.136,11.136,0,0,0,1.352,4A9.477,9.477,0,0,0,18.159,39.7,8.608,8.608,0,0,0,21.835,41.4c.763.172,1.534.313,2.314.469,0,1.28,0,2.556,0,3.855" transform="translate(0 0)" fill="#fff"/>
    <path id="Tracé_1288" data-name="Tracé 1288" d="M181.43,194.259V182.47c.488.183.953.34,1.406.527a7.693,7.693,0,0,1,2.423,1.454,4.125,4.125,0,0,1,1.252,2.458,6.579,6.579,0,0,1-.617,4.3,5.643,5.643,0,0,1-4.023,2.968c-.139.025-.278.054-.441.086" transform="translate(-154.92 -155.808)" fill="#fff"/>
    <path id="Tracé_1289" data-name="Tracé 1289" d="M137.109,79.12V89.836c-.44-.164-.868-.3-1.281-.479a5.355,5.355,0,0,1-3.084-2.756,5.477,5.477,0,0,1-.4-2.846,5.082,5.082,0,0,1,1.425-2.994,5.238,5.238,0,0,1,2.36-1.4c.311-.091.63-.155.982-.241" transform="translate(-112.971 -67.559)" fill="#fff"/>
  </g>
</svg>
