<svg id="shield" xmlns="http://www.w3.org/2000/svg" xmlns:xlink="http://www.w3.org/1999/xlink" width="43.038" height="50.23" viewBox="0 0 43.038 50.23">
  <defs>
    <clipPath id="clip-path">
      <rect id="Rectangle_788" data-name="Rectangle 788" width="43.038" height="50.23" fill="none"/>
    </clipPath>
  </defs>
  <g id="Groupe_42" data-name="Groupe 42" clip-path="url(#clip-path)">
    <path id="Tracé_1290" data-name="Tracé 1290" d="M21.555,50.23A39,39,0,0,1,4.72,31.114,56.9,56.9,0,0,1,.483,15.079c-.2-1.7-.321-3.416-.483-5.19A48,48,0,0,0,21.553,0,47.932,47.932,0,0,0,43.038,9.875c-.043.867-.062,1.712-.13,2.555a61.214,61.214,0,0,1-2.783,14.1A43.59,43.59,0,0,1,30.072,43.719a36.5,36.5,0,0,1-7.143,5.7c-.443.272-.9.53-1.374.812m-.88-24.641L14.912,19.8l-2.7,2.7,8.555,8.556,11.9-11.9L29.962,16.3c-3.1,3.1-6.155,6.155-9.287,9.287" fill="#fff"/>
  </g>
</svg>
