<svg xmlns="http://www.w3.org/2000/svg" width="70.047" height="70.122" viewBox="0 0 70.047 70.122">
  <g id="Steam_icon_logo" transform="translate(-0.251 0)">
    <path id="Soustraction_1" data-name="Soustraction 1" d="M34.986,70.122A35.085,35.085,0,0,1,1.439,45.287l13.275,5.478A9.855,9.855,0,0,0,16.7,54.848a9.685,9.685,0,0,0,10.276,3.126,9.789,9.789,0,0,0,2.546-1.184,9.751,9.751,0,0,0,4.4-8.4L46.2,39.618c.088,0,.2.006.3.006A13.341,13.341,0,1,0,33.18,26.28c0,.058,0,.118,0,.173L24.6,38.916c-.141-.006-.286-.01-.429-.01a9.763,9.763,0,0,0-5.319,1.6L.015,32.753v0l-.008-.013L0,32.732a35.092,35.092,0,1,1,34.986,37.39Zm-10.8-13.961A7.459,7.459,0,0,1,17.45,51.9l4.335,1.8a5.53,5.53,0,0,0,4.248-10.211l-4.482-1.857a7.505,7.505,0,1,1,2.635,14.533h0ZM46.5,35.17a8.888,8.888,0,1,1,8.875-8.89A8.891,8.891,0,0,1,46.5,35.17Zm.015-15.582a6.639,6.639,0,1,0,2.594.525A6.6,6.6,0,0,0,46.512,19.588Z" transform="translate(0.251 0)" fill="#fff"/>
  </g>
</svg>
