<svg id="Calque_1" data-name="Calque 1" xmlns="http://www.w3.org/2000/svg" width="914.3677" height="941.8898" viewBox="0 0 914.3677 941.8898"><defs><style>.cls-1{fill:#fff;}.cls-2{fill:#01a4fe;}.cls-3{fill:#010101;}</style></defs><path class="cls-1" d="M550.878,81.6869C556.06,73.4979,560.98,65.7235,565.9006,57.95c2.2985-3.6308,4.8321-7.1372,6.8322-10.9254,1.7333-3.2829,3.7277-3.6086,7.1359-2.6106C703.3672,80.58,796.8854,154.5972,859.05,267.2431c39.9269,72.35,57.6308,150.4653,55.0765,233.0293C907.646,709.7521,756.6547,889.3508,551.3,932.1156,302.7422,983.8772,60.6245,824.94,9.3809,576.3751c-48.3539-234.5478,94.7223-468.3279,325.51-532.0406,3.6967-1.02,5.5333-.3944,7.6018,2.7968,7.3635,11.36,15.062,22.5037,22.8231,34.01-8.5967,2.5091-16.8772,4.7557-25.0513,7.3386-65.44,20.6782-123.7859,53.8664-173.6593,101.02-25.63,24.2322-45.798,53.1373-63.6052,83.5434-38.02,64.92-59.5067,134.9909-62.1253,210.1809-.718,20.6171,2.7131,41.643,6.3643,62.1022,15.671,87.81,53.7554,164.859,114.6348,230.0829,23.3774,25.0457,51.5379,44.6115,80.9589,62.1075,65.72,39.0821,136.8132,61.15,213.2269,63.686,21.5851.7165,43.5983-3.1,65.0115-7.0349,86.7048-15.9312,162.6809-54.039,227.0627-114.2339,24.6538-23.0506,43.9366-50.806,61.2511-79.7587,39.4291-65.9314,61.5816-137.3024,64.2795-214.06.7247-20.6143-2.7594-41.6417-6.43-62.0993-15.7532-87.7907-53.8577-164.8376-114.8092-229.9964-23.63-25.2612-52.1532-44.8788-81.8576-62.5608A455.6344,455.6344,0,0,0,554.1849,82.6321C553.2813,82.3914,552.3862,82.119,550.878,81.6869Z"/><path class="cls-1" d="M291.4115,146.63c42.9054,101.9157,85.5012,203.0956,128.5867,305.439L114.9192,326.5769C153.34,246.5106,211.8708,186.7856,291.4115,146.63Z"/><path class="cls-1" d="M499.3392,448.5581q26.591-65.0636,53.1857-130.1254,34.2163-83.61,68.4808-167.1994c.6115-1.4929,1.25-2.9748,2.1272-5.0585,79.3291,39.6828,137.99,99.0648,176.8142,179.0222-12.2881,5.0862-24.1214,9.9727-35.9461,14.88q-129.8457,53.89-259.6951,107.7705c-1.354.5617-2.8078.8828-4.2151,1.3161A3.7846,3.7846,0,0,0,499.3392,448.5581Z"/><path class="cls-1" d="M402.4482,490.8521l-300.25,124.3486c-28.9966-82.6492-30.0424-165.2875-3.1119-248.904Z"/><path class="cls-1" d="M515.233,490.5691,816.2491,365.8885c26.9129,82.8569,26.1122,164.9741-2.2825,247.5666C714.4023,572.4988,615.221,531.7,515.233,490.5691Z"/><path class="cls-1" d="M418.5942,530.4173c-41.5827,99.8878-82.568,198.34-123.7331,297.2244-77.49-37.9716-135.67-95.035-175.3441-172.0825Z"/><path class="cls-1" d="M458.1276,547.1225c41.397,99.3332,82.3683,197.6446,123.5682,296.5043-81.7384,27.4366-163.1941,27.7382-245.5135.8282Z"/><path class="cls-1" d="M622.3725,826.8305l-122.7594-295.58,297.01,122.9965C757.576,731.0885,699.7105,788.3776,622.3725,826.8305Z"/><path class="cls-1" d="M584.06,128.9976c-42.2947,101.8547-84.0291,202.36-126.209,303.9379C415.6242,331.4225,373.78,230.83,331.4466,129.0614c16.6256-4.3621,32.7914-8.3485,48.7861-12.9323,5.9466-1.7041,8.92-.0713,12.284,5.0016,22.4685,33.8817,45.3352,67.4993,68.4147,101.71,1.2325-1.8429,2.3183-3.398,3.3349-4.997q31.3815-49.356,62.6627-98.775c2.0372-3.2357,3.9119-4.0159,7.5144-3.0417C550.701,120.4233,567.0262,124.57,584.06,128.9976Z"/><path class="cls-2" d="M355.7052,0H553.8338L457.2687,150.4589C423.37,100.241,389.7778,50.476,355.7052,0Z"/><path class="cls-3" d="M500.0908,449.164q-.3111.3261-.6221.6524-.0636-.6289-.1283-1.258A3.7966,3.7966,0,0,1,500.0908,449.164Z"/></svg>
